<svg viewBox="0 0 120 120" version="1.1" xmlns="http://www.w3.org/2000/svg" xmlns:xlink="http://www.w3.org/1999/xlink"><g id="reddit-community" stroke="none" stroke-width="1" fill="none" fill-rule="evenodd"><g id="reddit-logo"><circle id="reddit-community-bg-copy" fill="#FF4501" cx="60" cy="60" r="60"/><path d="M71.7402062,72.3271462 C68.5360825,72.3271462 65.942268,69.7254292 65.942268,66.5081206 C65.942268,63.2938747 68.5360825,60.6890951 71.7402062,60.6890951 C74.9443299,60.6890951 77.5381443,63.2938747 77.5381443,66.5081206 C77.5381443,69.5707657 74.9443299,72.3271462 71.7402062,72.3271462 M72.8082474,81.8213457 C68.8412371,85.8043155 61.3649485,86.1090487 59.0762887,86.1090487 C56.7876289,86.1090487 49.3113402,85.8043155 45.3443299,81.8213457 C44.7340206,81.210348 44.7340206,80.2900232 45.3443299,79.6790255 C45.9546392,79.0649652 46.8701031,79.0649652 47.4804124,79.6790255 C49.9216495,82.1276102 55.2618557,83.0464037 59.0762887,83.0464037 C62.8907216,83.0464037 68.2309278,82.1276102 70.6721649,79.6790255 C71.2824742,79.0649652 72.1979381,79.0649652 72.8082474,79.6790255 C73.2659794,80.2900232 73.2659794,81.210348 72.8082474,81.8213457 M40.614433,66.5081206 C40.614433,63.2938747 43.2082474,60.6890951 46.4123711,60.6890951 C49.6164948,60.6890951 52.2103093,63.2938747 52.2103093,66.5081206 C52.2103093,69.7254292 49.6164948,72.3271462 46.4123711,72.3271462 C43.2082474,72.3271462 40.614433,69.5707657 40.614433,66.5081206 M96,60.6890951 C96,56.2482599 92.3381443,52.5746172 87.9134021,52.5746172 C85.7773196,52.5746172 83.7938144,53.4918794 82.2680412,54.8716009 C76.7752577,50.8886311 69.1463918,48.2853828 60.6020619,47.9806497 L64.2639175,30.5220418 L76.3175258,33.12529 C76.4701031,36.187935 78.9113402,38.638051 82.1154639,38.638051 C85.3195876,38.638051 87.9134021,36.0348028 87.9134021,32.8190255 C87.9134021,29.6047796 85.3195876,27 82.1154639,27 C79.8268041,27 77.843299,28.3781903 76.9278351,30.2157773 L63.5010309,27.3077958 C63.043299,27.3077958 62.7381443,27.3077958 62.4329897,27.4593968 C62.1278351,27.612529 61.9752577,27.9187935 61.8226804,28.3781903 L57.7030928,47.8259861 C49.1587629,48.1322506 41.3773196,50.7354988 35.7319588,54.7169374 C34.2061856,53.3402784 32.2226804,52.4199536 30.0865979,52.4199536 C25.6618557,52.4199536 22,56.0951276 22,60.5359629 C22,63.9048724 23.9835052,66.6627842 26.7298969,67.8878422 C26.5773196,68.6535035 26.5773196,69.4191647 26.5773196,70.3364269 C26.5773196,82.7416705 41.0721649,93 58.9237113,93 C76.7752577,93 91.2701031,82.8932715 91.2701031,70.3364269 C91.2701031,69.5707657 91.2701031,68.6535035 91.1175258,67.8878422 C94.0164948,66.8143852 96,64.059536 96,60.6890951" id="reddit" fill="#FFFFFF"/></g></g></svg>