<svg viewBox="0 0 120 120" version="1.1" xmlns="http://www.w3.org/2000/svg" xmlns:xlink="http://www.w3.org/1999/xlink"><g id="twitter-community" stroke="none" stroke-width="1" fill="none" fill-rule="evenodd"><g id="Twitter"><g id="twitter-logo"><circle id="twitter-logo-bg-copy" fill="#55ACEE" cx="60" cy="60" r="60"/><path d="M97.6199346,84.662595 C94.9734919,83.4881473 92.1275263,82.6943724 89.1415262,82.3367578 C92.1891205,84.1647353 94.5291717,87.0578704 95.6315491,90.5045632 C92.7792661,88.8120402 89.6205918,87.5843688 86.2560771,86.9226265 C83.5643602,89.7912293 79.7270973,91.5843034 75.480786,91.5843034 C67.3266682,91.5843034 60.7176686,84.9747773 60.7176686,76.8211859 C60.7176686,75.6636371 60.8470163,74.5365168 61.0997629,73.4566713 C48.8293659,74.0715599 37.9508914,79.9509058 30.6690941,88.8820575 C29.3982015,86.7025722 28.6702324,84.1668411 28.6702324,81.4607521 C28.6702324,76.3380141 31.2755596,71.8199516 35.2381692,69.1714031 C32.8181509,69.2470534 30.5413258,69.9114805 28.5507292,71.0180694 C28.5484655,70.9559488 28.5484655,70.89446 28.5484655,70.8327605 C28.5484655,63.6783631 33.6381428,57.7126802 40.3913885,56.3555031 C39.1536093,56.0180514 37.8496559,55.8395863 36.5030604,55.8395863 C35.5507727,55.8395863 34.6274396,55.9296611 33.7244272,56.1028091 C35.6044175,50.2376773 41.0557104,45.9687289 47.5173052,45.8492257 C42.4603729,41.8887745 36.0955388,39.5297712 29.1780419,39.5297712 C27.987169,39.5297712 26.8110893,39.5998938 25.6551724,39.7356115 C32.1915225,35.5467882 39.9508061,33.1034483 48.2891799,33.1034483 C75.4443033,33.1034483 90.2921786,55.5990006 90.2921786,75.110132 C90.2921786,75.7499215 90.2774381,76.3853415 90.2505894,77.0184978 C93.1339326,79.1016962 95.6366556,81.7012325 97.6171444,84.6624897" fill="#FFFFFF" transform="translate(61.637553, 62.343876) scale(1, -1) translate(-61.637553, -62.343876) "/></g></g></g></svg>