<svg xmlns="http://www.w3.org/2000/svg" viewBox="0 0 363.28 394.72" class="feature-lock-svg"><defs><style>.protec-cls-1{fill:#fff;}.protec-cls-2,.cls-6{fill:#b3bdc7;}.protec-cls-2,.protec-cls-4{opacity:0.3;}.protec-cls-3,.protec-cls-4,.protec-cls-5{fill:none;stroke-linecap:round;stroke-linejoin:round;stroke-width:2px;}.protec-cls-3,.protec-cls-4{stroke:#b3bdc7;}.protec-cls-5{stroke:#fff;}</style></defs><g id="Layer_2" data-name="Layer 2"><g id="Layer_1-2" data-name="Layer 1"><path class="protec-cls-1" d="M219.68,197.39l13.82,1.74c33.12,4.5,56.86.58,72.61-6.92l20.31-18.48,5.12-11-3.24-11.48-9.25-7.91-13-2.08c-6.2-.23-12.63.55-18.79,1.22-21.74,2.35-45.94-.06-66-8A41.2,41.2,0,0,1,196,102.44c-6.73-41.56,3.84-52.58-12.85-73,5.92-24.09-9.24-26.42-17-13.62,0,0-32.22-11-60.51,0C97.87,3,82.71,5.31,88.62,29.4c-17.18,21.06-6,38.16-12.61,73.92-3,18.56-13.92,27.25-48.89,51-7,4.77-12,9.83-15.21,15V233.8l41.25,77.58c1.74,4.81,3.63,9.39,5.59,13.73L87,382.84H85.14a10.89,10.89,0,0,0-10.89,10.89H197.89A10.89,10.89,0,0,0,187,382.84h-1.88l28.27-57.73c15.48-34.29,26.34-83.35-.92-146.75"/><ellipse class="protec-cls-2" cx="311.51" cy="319.75" rx="18.22" ry="14.76"/><circle class="protec-cls-2" cx="303.14" cy="353.2" r="7.94"/><circle class="protec-cls-2" cx="319.88" cy="353.2" r="7.94"/><polygon class="protec-cls-2" points="316.22 87.86 316.22 2.29 311.51 1.01 306.79 2.29 306.79 87.86 316.22 87.86"/><rect class="protec-cls-2" x="317.36" y="14.76" width="4.72" height="50.46"/><polygon class="protec-cls-2" points="311.51 164.46 319.24 158.55 312.34 153.95 306.79 161.26 306.79 251.12 316.22 251.12 316.22 181.8 313.02 176.73 319.24 172.22 313.02 168.74 311.51 164.46"/><rect class="protec-cls-2" x="306.79" y="259.4" width="9.43" height="46.26"/><rect class="protec-cls-2" x="286.01" y="367.63" width="9.43" height="5.85" transform="translate(-42.87 38.07) rotate(-6.98)"/><rect class="protec-cls-2" x="329.95" y="365.86" width="5.85" height="9.43" transform="translate(-75.4 655.96) rotate(-83.02)"/><rect class="protec-cls-2" x="321.62" y="356.83" width="9.43" height="5.85" transform="translate(-158.29 392.27) rotate(-51.63)"/><rect class="protec-cls-2" x="292.82" y="355.06" width="5.85" height="9.43" transform="translate(-159.46 261.31) rotate(-38.37)"/><rect class="protec-cls-2" x="329.28" y="316.66" width="5.85" height="9.43" transform="translate(-23.14 25.78) rotate(-4.3)"/><rect class="protec-cls-2" x="285.29" y="318.43" width="9.43" height="5.85" transform="translate(-52.16 586.47) rotate(-85.7)"/><path class="protec-cls-2" d="M72.48,321.92c47.28-20.7,67.2-54.77,70.78-110.6.74-11.56.78-34.6.22-46.49a51,51,0,0,1-29.32,9.3c-16.87,0-31.9-8.3-41.69-21.24-9.79,12.94-24.81,21.24-41.69,21.24a51.12,51.12,0,0,1-29.32-9.3c-.58,12.28-.64,34.79,0,46.49C4.44,265.7,22.36,297.56,72.48,321.92Z"/><path class="protec-cls-2" d="M150.17,208.85c.63-12.87.58-33.55.07-44.34l-6.75.32.07,40.31Z"/><path class="protec-cls-2" d="M139.83,240.64l-.67,6.29-8.8,23.84-16.47,25.39L83,317.83l-10.25,4.08L54.1,311.72l3.16,9.81q5.82,3.33,12.27,6.46l2.81,1.36,2.86-1.25C100,317.24,117.93,302.61,130,283.37c8.18-13,13.84-28.57,17.14-47.07C147.2,235.89,139.83,240.64,139.83,240.64Z"/><path class="protec-cls-2" d="M213,176.81s12.62,8.64,16.84,21.85l-10.06-2Z"/><path class="protec-cls-2" d="M301.3,163.67s.94,6.53,5.49,1.5l.49-4.57Z"/><polygon class="protec-cls-2" points="306.79 96.96 306.79 149.98 312.34 153.95 316.22 147.01 316.22 96.96 306.79 96.96"/><path class="protec-cls-3" d="M53.23,311.37c1.74,4.81,3.63,9.39,5.59,13.73l28.27,57.73H85.21a10.89,10.89,0,0,0-10.89,10.89H198a10.89,10.89,0,0,0-10.89-10.89h-1.88l28.27-57.73c15.48-34.29,26.34-83.35-.92-146.75"/><line class="protec-cls-3" x1="136.56" y1="393.72" x2="136.56" y2="345.23"/><path class="protec-cls-3" d="M98.86,338.6a110.54,110.54,0,0,0,75.47,0"/><line class="protec-cls-4" x1="90.88" y1="117.97" x2="89.73" y2="127.72"/><path class="protec-cls-4" d="M115.37,134.3v13.14"/><path class="protec-cls-4" d="M92.15,153.84a39,39,0,0,0-1.21,9.37"/><path class="protec-cls-4" d="M95.85,310a14.91,14.91,0,0,0,3,9.39"/><path class="protec-cls-4" d="M136.05,298.76a23.59,23.59,0,0,0,.27,6.39"/><path class="protec-cls-4" d="M165.68,149.32v7.51"/><path class="protec-cls-4" d="M194.88,168.84q1.94,6,3.86,12"/><path class="protec-cls-4" d="M214.86,248.07a20,20,0,0,1-1.06,7.53"/><path class="protec-cls-4" d="M210.78,283.37a48.74,48.74,0,0,0-2,8.61"/><path class="protec-cls-4" d="M180.66,297.22a12.7,12.7,0,0,0,2.72-7.85"/><path class="protec-cls-4" d="M170.94,233.8A39.61,39.61,0,0,0,175.05,244"/><path class="protec-cls-4" d="M176.13,185.38a28.38,28.38,0,0,1,.13,8.63"/><path class="protec-cls-4" d="M148.79,122.66v9.19"/><path class="protec-cls-4" d="M153.26,258.58c0,2,.25,7.43.88,9.35"/><path class="protec-cls-4" d="M158.53,326.91a44.72,44.72,0,0,0,2.32-7.87"/><path class="protec-cls-4" d="M183.07,352.47c-.53,2.5-1,5-1.58,7.49"/><path class="protec-cls-4" d="M158.55,368.21c-.39,1.59-.38,8.26-.38,8.26"/><line class="protec-cls-4" x1="92.81" y1="351.32" x2="95.48" y2="359.19"/><path class="protec-cls-4" d="M114.52,370.51c1.06,2.22,3.25,5.57,4.32,7.79"/><line class="protec-cls-4" x1="187.44" y1="128.35" x2="190.64" y2="140.26"/><path class="protec-cls-4" d="M232.8,171.07l7,2.66"/><path class="protec-cls-4" d="M260.14,160l12.6.64"/><path class="protec-cls-4" d="M284.57,183a36.08,36.08,0,0,1-11.76.8"/><line class="protec-cls-4" x1="217.73" y1="148.79" x2="225.61" y2="151.73"/><path class="protec-cls-4" d="M196.81,215.41A36,36,0,0,1,198,226.29"/><path class="protec-cls-3" d="M306.18,192.2c-15.75,7.5-39.49,11.42-72.61,6.92l-13.82-1.74"/><path class="protec-cls-3" d="M316.86,143.06c20.25,6.62,17.57,29.23-.18,42.8"/><path class="protec-cls-3" d="M140.8,240.64c15.77-9,18.09-24,7.81-32.95a28.66,28.66,0,0,0-4.36-3.13"/><polyline class="protec-cls-3" points="316.22 147.01 316.22 96.96 306.79 96.96 306.79 149.99"/><polyline class="protec-cls-3" points="306.79 161.26 306.79 251.12 316.22 251.12 316.22 181.8"/><path class="protec-cls-3" d="M297.83,149.32s24.56-.42,4.9,14.35"/><path class="protec-cls-3" d="M321.82,180.44c-11.46,0-16.54-1.76-.13-9.39-10.75-2.94-16.35-6.05,2.92-13.82,0,0-24.07-.27-3.05-12.16"/><path class="protec-cls-3" d="M72.48,321.92c47.28-20.7,67.2-54.77,70.78-110.6.74-11.56.78-34.6.22-46.49a51,51,0,0,1-29.32,9.3c-16.87,0-31.9-8.3-41.69-21.24-9.79,12.94-24.81,21.24-41.69,21.24a51.12,51.12,0,0,1-29.32-9.3c-.58,12.28-.64,34.79,0,46.49C4.44,265.7,22.36,297.56,72.48,321.92Z"/><path class="protec-cls-5" d="M14.55,185.56A64.51,64.51,0,0,0,72.49,172.4a64.54,64.54,0,0,0,57.88,13.18"/><path class="protec-cls-5" d="M72.74,306.91C33,286,17.67,260.14,15,210.59"/><path class="protec-cls-5" d="M113.88,270.78a83.61,83.61,0,0,1-17,20.41"/><path class="protec-cls-5" d="M129.77,210.46c-1.13,17.54-3.91,32.42-8.67,45.14"/><rect class="protec-cls-3" x="303.97" y="88.47" width="15.08" height="8.45"/><rect class="protec-cls-3" x="303.97" y="251.12" width="15.08" height="8.45"/><path class="protec-cls-3" d="M317.36,88.47V5.36c0-5.81-11.71-5.81-11.71,0V88.47"/><polygon class="protec-cls-3" points="317.36 64.37 350.95 64.37 350.95 54.71 340.39 54.71 340.39 45.05 358.04 45.05 358.04 35.39 333.44 35.39 333.44 25.73 350.95 25.73 350.95 15.51 317.36 15.51 317.36 64.37"/><path class="protec-cls-3" d="M337.11,367.65a25.6,25.6,0,0,1-51.2,0"/><path class="protec-cls-3" d="M328.3,367.65a16.8,16.8,0,0,1-33.6,0"/><circle class="protec-cls-3" cx="319.88" cy="353.2" r="7.94"/><ellipse class="protec-cls-3" cx="311.51" cy="319.83" rx="18.74" ry="14.68"/><path class="protec-cls-3" d="M325.47,329.54a16.8,16.8,0,1,1,2.35,26.8"/><path class="protec-cls-3" d="M330.25,317.27a25.61,25.61,0,1,1-10.48,44"/><circle class="protec-cls-3" cx="303.14" cy="353.2" r="7.94"/><path class="protec-cls-3" d="M297.54,329.54a16.8,16.8,0,1,0-2.35,26.8"/><path class="protec-cls-3" d="M292.77,317.27a25.61,25.61,0,1,0,10.48,44"/><line class="protec-cls-3" x1="317.67" y1="259.57" x2="317.67" y2="305"/><line class="protec-cls-3" x1="305.92" y1="305" x2="305.92" y2="259.57"/><path class="protec-cls-3" d="M105.69,15.78C97.94,3,82.78,5.31,88.69,29.4c-17.18,21.06-6,38.16-12.61,73.92-3,18.56-13.92,27.25-48.89,51-7,4.77-12,9.83-15.21,15"/><path class="protec-cls-3" d="M166.2,15.78C174,3,189.11,5.31,183.2,29.4c16.69,20.47,6.12,31.48,12.85,73a41.2,41.2,0,0,0,25.25,32.05c20,8,44.25,10.37,66,8,6.16-.67,12.59-1.45,18.79-1.22"/><path class="protec-cls-3" d="M143.43,79.12a10,10,0,0,1-14.1.2"/><path class="cls-6" d="M131,42.59C116,46.72,129.06,59.8,136.38,59.8s20.41-13.06,5.43-17.21A20.23,20.23,0,0,0,131,42.59Z"/><path class="protec-cls-3" d="M170.66,17.37a83.24,83.24,0,0,0-68.62,0"/><path class="protec-cls-4" d="M148.25,36.41a32.92,32.92,0,0,0-23.73,0"/><circle class="cls-6" cx="106.75" cy="43.5" r="3.9"/><circle class="cls-6" cx="166.07" cy="43.5" r="3.9"/></g></g></svg>