<svg viewBox="0 0 22 22" version="1.1" xmlns="http://www.w3.org/2000/svg" xmlns:xlink="http://www.w3.org/1999/xlink"><g id="shiny-logo-page-1" stroke="none" stroke-width="1" fill="currentColor" fill-rule="evenodd"><g id="shinyfrog-logo" transform="translate(1.000000, 1.000000)"><path d="M10.6740375,3.60626459 C10.5260728,3.46450152 10.291262,3.46458551 10.1434244,3.60647455 L5.14475103,8.40386938 C4.98606299,8.55621429 4.95406259,8.79674119 5.06756862,8.98456886 L9.81812237,16.8467921 C9.89153254,16.9683153 10.0378019,17.0263055 10.1755519,16.9885972 C10.3133443,16.9508469 10.4087521,16.8266363 10.4087521,16.6850412 L10.4087521,13.6817881 C10.4087521,13.2295824 10.7788123,12.8629553 11.2352524,12.8629553 L13.2476381,12.8629553 C13.3300338,12.8629553 13.4065804,12.8207119 13.4499823,12.7513 C13.4933418,12.6818462 13.4973259,12.5951339 13.4605361,12.5220688 L12.4444343,10.5017192 C12.3520782,10.3183006 12.1290503,10.2412044 11.9415831,10.3279587 L8.81305571,12.1320364 C8.72137776,12.1744898 8.61266119,12.1547958 8.54200602,12.0830325 C8.47139323,12.0112271 8.45431223,11.9030152 8.49949424,11.8132795 L8.95591713,10.4304597 C8.98456914,10.3736034 8.9888076,10.3076768 8.96765767,10.2476291 C8.94650774,10.1876233 8.90183434,10.1386193 8.84368264,10.1117028 L7.25427527,9.07119718 C7.15323032,9.02441872 7.09855415,8.91440118 7.12271339,8.8065252 C7.14687262,8.69869121 7.24346719,8.62193087 7.35498114,8.62193087 L9.36507309,8.62193087 C9.45530996,8.62193087 9.53774806,8.57137319 9.57801345,8.49137952 L10.1534271,6.75872916 C10.1936925,6.67873549 10.2761306,6.62817781 10.3663675,6.62817781 C10.456562,6.62817781 10.5390425,6.67873549 10.5792655,6.75872916 L11.4468788,8.48239335 C11.4898992,8.5678879 11.5780592,8.62193087 11.6744843,8.62193087 L14.7620772,8.62193087 C14.8590108,8.62193087 14.9462807,8.56364677 14.9826468,8.47458295 C15.0189704,8.38556112 14.9971847,8.28356394 14.927462,8.21675557 L10.6740375,3.60626459 Z" id="logo" fill="currentColor"/><circle id="Oval" stroke="#A3ABB3" cx="10" cy="10" r="10"/></g></g></svg>